<svg width="31" height="31" viewBox="0 0 31 31" fill="none" xmlns="http://www.w3.org/2000/svg">
<g clip-path="url(#clip0_471_427)">
<path fill-rule="evenodd" clip-rule="evenodd" d="M10.2556 16.8692C9.89276 16.5059 9.68896 16.0134 9.68896 15.5C9.68896 14.9866 9.89276 14.4941 10.2556 14.1308L17.5613 6.82258C17.9247 6.45928 18.4176 6.25525 18.9315 6.25537C19.186 6.25543 19.4379 6.30561 19.673 6.40304C19.9081 6.50047 20.1216 6.64325 20.3015 6.82322C20.4814 7.00319 20.6241 7.21683 20.7214 7.45194C20.8187 7.68706 20.8688 7.93903 20.8687 8.19349C20.8687 8.44795 20.8185 8.6999 20.7211 8.93497C20.6236 9.17003 20.4809 9.38361 20.3009 9.56349L14.3657 15.5L20.3022 21.4365C20.4873 21.6151 20.635 21.8289 20.7367 22.0652C20.8383 22.3015 20.8919 22.5557 20.8942 22.813C20.8966 23.0703 20.8477 23.3254 20.7504 23.5636C20.6531 23.8017 20.5093 24.0181 20.3275 24.2001C20.1457 24.3821 19.9294 24.5261 19.6913 24.6236C19.4533 24.7211 19.1982 24.7703 18.9409 24.7682C18.6836 24.7661 18.4294 24.7127 18.193 24.6113C17.9565 24.5099 17.7427 24.3624 17.5638 24.1774L10.253 16.8692H10.2556Z" fill="black"/>
</g>
<defs>
<clipPath id="clip0_471_427">
<rect width="31" height="31" fill="white"/>
</clipPath>
</defs>
</svg>
