<svg width="14" height="14" viewBox="0 0 14 14" fill="none" xmlns="http://www.w3.org/2000/svg">
<g clip-path="url(#clip0_264_7)">
<path d="M13.2713 12.2782C13.1957 12.105 9.09016 9.66242 9.08578 9.65936C8.50653 9.23345 8.43544 8.81914 8.90291 8.58114C9.30388 8.37705 9.64841 7.72167 9.90806 7.01992C9.95455 7.04114 10.0071 7.04487 10.0562 7.03042C11.1466 6.71192 11.1663 4.51086 10.4368 4.90001C11.1186 -1.04867 2.88225 -1.05174 3.56366 4.90023C2.83391 4.51064 2.85359 6.71192 3.94428 7.03042C3.99322 7.04473 4.04567 7.04108 4.09216 7.02014C4.35159 7.72167 4.69591 8.37705 5.09666 8.58114C5.56784 8.82067 5.47488 9.21464 4.90263 9.66833C4.71209 9.81948 2.05341 11.3013 1.30353 11.8029C1.30216 11.8035 1.30084 11.8042 1.29959 11.8051H1.30003C0.990281 12.0125 0.769781 12.185 0.729313 12.2782C0.515156 12.7713 0.4375 13.5625 0.4375 13.5625H13.5627C13.5627 13.5625 13.4853 12.7713 13.2713 12.2782Z" fill="black"/>
</g>
<defs>
<clipPath id="clip0_264_7">
<rect width="14" height="14" fill="white"/>
</clipPath>
</defs>
</svg>
