<svg width="53" height="53" viewBox="0 0 53 53" fill="none" xmlns="http://www.w3.org/2000/svg">
<path d="M15.458 37.5704L25.2034 37.5373L46.4741 16.4698C47.3088 15.635 47.7681 14.5264 47.7681 13.3472C47.7681 12.1679 47.3088 11.0593 46.4741 10.2246L42.9716 6.72217C41.3021 5.05267 38.3893 5.06151 36.7331 6.71555L15.458 27.7875V37.5704ZM39.8491 9.84476L43.3581 13.3405L39.8314 16.8341L36.329 13.3339L39.8491 9.84476ZM19.8747 29.6292L33.1909 16.4388L36.6933 19.9413L23.3793 33.1272L19.8747 33.1383V29.6292Z" fill="black"/>
<path d="M11.0417 46.375H41.9583C44.3941 46.375 46.375 44.3941 46.375 41.9583V22.8165L41.9583 27.2332V41.9583H18.0156C17.9582 41.9583 17.8985 41.9804 17.8411 41.9804C17.7683 41.9804 17.6954 41.9605 17.6203 41.9583H11.0417V11.0417H26.1621L30.5788 6.625H11.0417C8.60587 6.625 6.625 8.60587 6.625 11.0417V41.9583C6.625 44.3941 8.60587 46.375 11.0417 46.375Z" fill="black"/>
</svg>
