<svg width="32" height="22" viewBox="0 0 32 22" fill="none" xmlns="http://www.w3.org/2000/svg">
<path fill-rule="evenodd" clip-rule="evenodd" d="M1.66667 0C1.22464 0 0.800716 0.158669 0.488155 0.441102C0.175595 0.723535 0 1.1066 0 1.50602C0 1.90544 0.175595 2.2885 0.488155 2.57093C0.800716 2.85336 1.22464 3.01203 1.66667 3.01203H30C30.442 3.01203 30.8659 2.85336 31.1785 2.57093C31.4911 2.2885 31.6667 1.90544 31.6667 1.50602C31.6667 1.1066 31.4911 0.723535 31.1785 0.441102C30.8659 0.158669 30.442 0 30 0H1.66667ZM0 10.5421C0 10.1427 0.175595 9.75963 0.488155 9.4772C0.800716 9.19477 1.22464 9.0361 1.66667 9.0361H30C30.442 9.0361 30.8659 9.19477 31.1785 9.4772C31.4911 9.75963 31.6667 10.1427 31.6667 10.5421C31.6667 10.9415 31.4911 11.3246 31.1785 11.607C30.8659 11.8895 30.442 12.0481 30 12.0481H1.66667C1.22464 12.0481 0.800716 11.8895 0.488155 11.607C0.175595 11.3246 0 10.9415 0 10.5421ZM0 19.5797C0 19.1803 0.175595 18.7972 0.488155 18.5148C0.800716 18.2324 1.22464 18.0737 1.66667 18.0737H30C30.442 18.0737 30.8659 18.2324 31.1785 18.5148C31.4911 18.7972 31.6667 19.1803 31.6667 19.5797C31.6667 19.9791 31.4911 20.3622 31.1785 20.6446C30.8659 20.9271 30.442 21.0857 30 21.0857H1.66667C1.22464 21.0857 0.800716 20.9271 0.488155 20.6446C0.175595 20.3622 0 19.9791 0 19.5797Z" fill="black"/>
</svg>
