<svg width="61" height="53" viewBox="0 0 61 53" fill="none" xmlns="http://www.w3.org/2000/svg">
<g filter="url(#filter0_d_652_580)">
<path d="M55.0247 15.1485C54.5287 14.7137 53.9142 14.4369 53.2598 14.3535C52.6055 14.2701 51.9412 14.384 51.352 14.6806L41.6422 19.521L33.361 5.75546C33.0643 5.26292 32.6454 4.85545 32.1448 4.57258C31.6442 4.28971 31.0789 4.14107 30.504 4.14107C29.929 4.14107 29.3638 4.28971 28.8632 4.57258C28.3626 4.85545 27.9436 5.26292 27.6469 5.75546L19.3657 19.521L9.65384 14.6827C9.06525 14.3886 8.40279 14.2754 7.74994 14.3571C7.09709 14.4389 6.48305 14.7121 5.98517 15.1422C5.48729 15.5724 5.12785 16.1402 4.95213 16.7743C4.77641 17.4083 4.79227 18.0802 4.99771 18.7053L12.6579 42.1723C12.7732 42.5258 12.9665 42.8489 13.2234 43.1178C13.4803 43.3867 13.7943 43.5945 14.1423 43.7258C14.4902 43.8572 14.8632 43.9087 15.2337 43.8767C15.6042 43.8447 15.9628 43.7298 16.283 43.5407C16.3327 43.5118 21.4712 40.5781 30.4998 40.5781C39.5285 40.5781 44.667 43.5159 44.7063 43.5387C45.0265 43.7302 45.3858 43.8472 45.7575 43.8809C46.1291 43.9146 46.5036 43.8641 46.853 43.7332C47.2025 43.6024 47.518 43.3944 47.7761 43.1249C48.0342 42.8554 48.2282 42.5312 48.3438 42.1764L56.004 18.7218C56.2154 18.0964 56.2352 17.4221 56.0607 16.7854C55.8862 16.1487 55.5255 15.5787 55.0247 15.1485ZM44.4806 37.9944C41.7168 36.9344 36.9592 35.6094 30.4998 35.6094C24.0404 35.6094 19.2829 36.9385 16.519 37.9985L10.9292 20.875L18.492 24.6367C19.2436 25.0076 20.1069 25.0835 20.9117 24.8493C21.7165 24.6152 22.4044 24.088 22.8397 23.3718L30.4998 10.6414L38.16 23.3738C38.5953 24.0901 39.2833 24.6171 40.0882 24.8509C40.893 25.0847 41.7563 25.0083 42.5076 24.6367L50.0684 20.8687L44.4806 37.9944Z" fill="#A9BBC0"/>
</g>
<defs>
<filter id="filter0_d_652_580" x="0" y="0" width="61" height="61" filterUnits="userSpaceOnUse" color-interpolation-filters="sRGB">
<feFlood flood-opacity="0" result="BackgroundImageFix"/>
<feColorMatrix in="SourceAlpha" type="matrix" values="0 0 0 0 0 0 0 0 0 0 0 0 0 0 0 0 0 0 127 0" result="hardAlpha"/>
<feOffset dy="4"/>
<feGaussianBlur stdDeviation="2"/>
<feComposite in2="hardAlpha" operator="out"/>
<feColorMatrix type="matrix" values="0 0 0 0 0 0 0 0 0 0 0 0 0 0 0 0 0 0 0.25 0"/>
<feBlend mode="normal" in2="BackgroundImageFix" result="effect1_dropShadow_652_580"/>
<feBlend mode="normal" in="SourceGraphic" in2="effect1_dropShadow_652_580" result="shape"/>
</filter>
</defs>
</svg>
