<svg width="16" height="14" viewBox="0 0 16 14" fill="none" xmlns="http://www.w3.org/2000/svg">
<path d="M11.4795 3.11111H12.229V3.88889C12.229 4.09517 12.3079 4.293 12.4485 4.43886C12.589 4.58472 12.7797 4.66667 12.9785 4.66667C13.1772 4.66667 13.3679 4.58472 13.5084 4.43886C13.649 4.293 13.7279 4.09517 13.7279 3.88889V3.11111H14.4774C14.6762 3.11111 14.8668 3.02917 15.0074 2.88331C15.1479 2.73744 15.2269 2.53961 15.2269 2.33333C15.2269 2.12705 15.1479 1.92922 15.0074 1.78336C14.8668 1.6375 14.6762 1.55556 14.4774 1.55556H13.7279V0.777778C13.7279 0.571498 13.649 0.373667 13.5084 0.227806C13.3679 0.0819442 13.1772 0 12.9785 0C12.7797 0 12.589 0.0819442 12.4485 0.227806C12.3079 0.373667 12.229 0.571498 12.229 0.777778V1.55556H11.4795C11.2807 1.55556 11.0901 1.6375 10.9495 1.78336C10.809 1.92922 10.73 2.12705 10.73 2.33333C10.73 2.53961 10.809 2.73744 10.9495 2.88331C11.0901 3.02917 11.2807 3.11111 11.4795 3.11111ZM14.4774 6.22222C14.2786 6.22222 14.088 6.30417 13.9475 6.45003C13.8069 6.59589 13.7279 6.79372 13.7279 7V11.6667C13.7279 11.8729 13.649 12.0708 13.5084 12.2166C13.3679 12.3625 13.1772 12.4444 12.9785 12.4444H2.48574C2.28697 12.4444 2.09634 12.3625 1.95578 12.2166C1.81523 12.0708 1.73626 11.8729 1.73626 11.6667V4.20778L6.1432 8.78889C6.56479 9.22585 7.13626 9.47128 7.7321 9.47128C8.32794 9.47128 8.89941 9.22585 9.321 8.78889L11.1722 6.86778C11.3133 6.72132 11.3926 6.52268 11.3926 6.31556C11.3926 6.10843 11.3133 5.90979 11.1722 5.76333C11.0311 5.61687 10.8397 5.5346 10.6401 5.5346C10.4405 5.5346 10.2491 5.61687 10.108 5.76333L8.25674 7.68444C8.11664 7.82695 7.92828 7.90678 7.7321 7.90678C7.53592 7.90678 7.34756 7.82695 7.20746 7.68444L2.79303 3.11111H8.48158C8.68035 3.11111 8.87099 3.02917 9.01154 2.88331C9.1521 2.73744 9.23106 2.53961 9.23106 2.33333C9.23106 2.12705 9.1521 1.92922 9.01154 1.78336C8.87099 1.6375 8.68035 1.55556 8.48158 1.55556H2.48574C1.88942 1.55556 1.31752 1.80139 0.895857 2.23897C0.474193 2.67656 0.237305 3.27005 0.237305 3.88889V11.6667C0.237305 12.2855 0.474193 12.879 0.895857 13.3166C1.31752 13.7542 1.88942 14 2.48574 14H12.9785C13.5748 14 14.1467 13.7542 14.5683 13.3166C14.99 12.879 15.2269 12.2855 15.2269 11.6667V7C15.2269 6.79372 15.1479 6.59589 15.0074 6.45003C14.8668 6.30417 14.6762 6.22222 14.4774 6.22222Z" fill="black"/>
</svg>
