<svg width="39" height="38" viewBox="0 0 39 38" fill="none" xmlns="http://www.w3.org/2000/svg">
<path d="M34.8214 0H4.17857C3.07035 0 2.00751 0.428953 1.22388 1.19249C0.440241 1.95603 0 2.99162 0 4.07143L0 33.9286C0 35.0084 0.440241 36.044 1.22388 36.8075C2.00751 37.571 3.07035 38 4.17857 38H16.1267V25.0808H10.6423V19H16.1267V14.3654C16.1267 9.09371 19.3477 6.18179 24.281 6.18179C26.6436 6.18179 29.1142 6.59232 29.1142 6.59232V11.7664H26.392C23.7099 11.7664 22.8733 13.3882 22.8733 15.0516V19H28.8609L27.9033 25.0808H22.8733V38H34.8214C35.9297 38 36.9925 37.571 37.7761 36.8075C38.5598 36.044 39 35.0084 39 33.9286V4.07143C39 2.99162 38.5598 1.95603 37.7761 1.19249C36.9925 0.428953 35.9297 0 34.8214 0Z" fill="black"/>
</svg>
