<svg width="15" height="14" viewBox="0 0 15 14" fill="none" xmlns="http://www.w3.org/2000/svg">
<path d="M6.41557 0.365206C6.72563 0.128811 7.11104 0 7.50831 0C7.90559 0 8.291 0.128811 8.60106 0.365206L13.8474 4.35977C14.2621 4.67554 14.504 5.15393 14.504 5.65991V12.3356C14.504 12.777 14.3197 13.2004 13.9917 13.5125C13.6638 13.8246 13.219 14 12.7552 14H9.2576C9.05883 14 8.86819 13.9248 8.72764 13.7911C8.58708 13.6573 8.50812 13.4759 8.50812 13.2867V8.29347H6.50951V13.2867C6.50951 13.4759 6.43055 13.6573 6.28999 13.7911C6.14944 13.9248 5.9588 14 5.76003 14H2.26246C1.79865 14 1.35384 13.8246 1.02588 13.5125C0.697918 13.2004 0.513672 12.777 0.513672 12.3356V5.65896C0.513672 5.15393 0.755504 4.67554 1.17022 4.35977L6.41557 0.365206ZM7.66471 1.47893C7.62044 1.44528 7.56547 1.42696 7.50881 1.42696C7.45216 1.42696 7.39719 1.44528 7.35292 1.47893L2.10657 5.4735C2.07717 5.49584 2.05346 5.5242 2.0372 5.55648C2.02093 5.58876 2.01253 5.62411 2.01263 5.65991V12.3356C2.01263 12.4668 2.12455 12.5734 2.26246 12.5734H5.01055V7.58016C5.01055 7.39097 5.08951 7.20954 5.23007 7.07577C5.37062 6.94199 5.56125 6.86684 5.76003 6.86684H9.2576C9.45637 6.86684 9.64701 6.94199 9.78756 7.07577C9.92812 7.20954 10.0071 7.39097 10.0071 7.58016V12.5734H12.7552C12.8214 12.5734 12.885 12.5483 12.9318 12.5037C12.9787 12.4591 13.005 12.3987 13.005 12.3356V5.65896C13.0049 5.62332 12.9965 5.58815 12.9802 5.55605C12.964 5.52395 12.9403 5.49574 12.9111 5.4735L7.66471 1.47893Z" fill="black"/>
</svg>
