<svg width="39" height="38" viewBox="0 0 39 38" fill="none" xmlns="http://www.w3.org/2000/svg">
<path d="M11.31 0H27.69C33.93 0 39 4.94 39 11.02V26.98C39 29.9027 37.8084 32.7057 35.6874 34.7723C33.5663 36.839 30.6896 38 27.69 38H11.31C5.07 38 0 33.06 0 26.98V11.02C0 8.09731 1.19159 5.29433 3.31262 3.22768C5.43366 1.16103 8.3104 0 11.31 0ZM10.92 3.8C9.05818 3.8 7.27262 4.52064 5.95611 5.80339C4.63961 7.08614 3.9 8.82592 3.9 10.64V27.36C3.9 31.141 7.0395 34.2 10.92 34.2H28.08C29.9418 34.2 31.7274 33.4794 33.0439 32.1966C34.3604 30.9139 35.1 29.1741 35.1 27.36V10.64C35.1 6.859 31.9605 3.8 28.08 3.8H10.92ZM29.7375 6.65C30.384 6.65 31.004 6.90022 31.4611 7.34562C31.9182 7.79102 32.175 8.39511 32.175 9.025C32.175 9.65489 31.9182 10.259 31.4611 10.7044C31.004 11.1498 30.384 11.4 29.7375 11.4C29.091 11.4 28.471 11.1498 28.0139 10.7044C27.5568 10.259 27.3 9.65489 27.3 9.025C27.3 8.39511 27.5568 7.79102 28.0139 7.34562C28.471 6.90022 29.091 6.65 29.7375 6.65ZM19.5 9.5C22.0859 9.5 24.5658 10.5009 26.3943 12.2825C28.2228 14.0641 29.25 16.4804 29.25 19C29.25 21.5196 28.2228 23.9359 26.3943 25.7175C24.5658 27.4991 22.0859 28.5 19.5 28.5C16.9141 28.5 14.4342 27.4991 12.6057 25.7175C10.7772 23.9359 9.75 21.5196 9.75 19C9.75 16.4804 10.7772 14.0641 12.6057 12.2825C14.4342 10.5009 16.9141 9.5 19.5 9.5ZM19.5 13.3C17.9485 13.3 16.4605 13.9005 15.3634 14.9695C14.2663 16.0384 13.65 17.4883 13.65 19C13.65 20.5117 14.2663 21.9616 15.3634 23.0305C16.4605 24.0995 17.9485 24.7 19.5 24.7C21.0515 24.7 22.5395 24.0995 23.6366 23.0305C24.7337 21.9616 25.35 20.5117 25.35 19C25.35 17.4883 24.7337 16.0384 23.6366 14.9695C22.5395 13.9005 21.0515 13.3 19.5 13.3Z" fill="black"/>
</svg>
