<svg width="1007" height="469" viewBox="0 0 1007 469" fill="none" xmlns="http://www.w3.org/2000/svg">
<g filter="url(#filter0_d_265_477)">
<path d="M992.235 254.077H13.9822C8.46917 254.077 4 257.222 4 261.101C4 264.981 8.46917 268.126 13.9822 268.126H992.235C997.748 268.126 1002.22 264.981 1002.22 261.101C1002.22 257.222 997.748 254.077 992.235 254.077Z" fill="black"/>
</g>
<g filter="url(#filter1_d_265_477)">
<path d="M6.53247 422.276V309.154H47.5637C58.7888 309.154 67.213 311.464 72.8364 316.085C78.438 320.728 81.2388 328.008 81.2388 337.925C81.2388 345.009 80.0182 350.534 77.5771 354.501C75.1141 358.49 71.485 361.628 66.6899 363.917C78.6778 368.058 84.6717 376.94 84.6717 390.563C84.6717 401.897 81.6747 410.016 75.6808 414.92C69.6868 419.824 61.0229 422.276 49.6889 422.276H6.53247ZM48.3811 370.292H19.1198V411.16H49.1985C56.6091 411.16 62.2544 409.602 66.1341 406.485C69.992 403.39 71.9209 397.919 71.9209 390.072C71.9209 385.931 71.1363 382.444 69.567 379.61C67.9758 376.777 65.8725 374.761 63.257 373.562C58.4618 371.382 53.5032 370.292 48.3811 370.292ZM47.0733 320.27H19.1198V359.34H48.2176C55.1924 359.34 60.2927 357.672 63.5185 354.337C66.7226 351.024 68.3246 346.011 68.3246 339.298C68.3246 332.607 66.6136 327.757 63.1916 324.749C59.7478 321.763 54.375 320.27 47.0733 320.27ZM118.347 422.276H106.086V304.904H118.347V422.276ZM139.238 381.245C139.238 366.314 141.919 355.525 147.281 348.878C152.599 342.23 161.612 338.906 174.319 338.906C187.005 338.906 195.996 342.23 201.292 348.878C206.589 355.525 209.237 366.314 209.237 381.245C209.237 396.175 206.73 407.019 201.717 413.776C196.682 420.532 187.528 423.911 174.254 423.911C160.958 423.911 151.793 420.532 146.758 413.776C141.745 407.019 139.238 396.175 139.238 381.245ZM151.858 380.983C151.858 392.928 153.297 401.297 156.174 406.092C159.051 410.888 165.1 413.285 174.319 413.285C183.539 413.285 189.555 410.909 192.367 406.158C195.2 401.428 196.617 393.069 196.617 381.081C196.617 369.093 195.047 360.833 191.909 356.299C188.748 351.787 182.885 349.531 174.319 349.531C165.753 349.531 159.868 351.787 156.664 356.299C153.46 360.833 151.858 369.061 151.858 380.983ZM260.697 460.692C247.62 460.692 238.498 458.926 233.332 455.395C228.145 451.843 225.551 445.38 225.551 436.008C225.551 431.539 226.532 427.921 228.494 425.153C230.455 422.363 233.779 419.225 238.465 415.737C235.414 413.667 233.888 409.907 233.888 404.458C233.888 402.605 235.25 399.172 237.975 394.159L239.446 391.544C230.837 387.62 226.532 379.392 226.532 366.859C226.532 348.224 236.722 338.906 257.101 338.906C262.332 338.906 267.182 339.451 271.65 340.541L274.102 341.031L298.296 340.377V350.839L282.766 350.512C286.362 354.109 288.161 359.558 288.161 366.859C288.161 377.104 285.632 384.264 280.576 388.34C275.497 392.437 267.509 394.486 256.611 394.486C253.668 394.486 250.998 394.268 248.601 393.832C246.639 398.627 245.658 401.733 245.658 403.15C245.658 406.528 246.693 408.621 248.764 409.427C250.835 410.256 257.101 410.67 267.563 410.67C278.025 410.67 285.545 412.304 290.122 415.574C294.699 418.843 296.988 425.219 296.988 434.7C296.988 452.028 284.891 460.692 260.697 460.692ZM237.648 435.027C237.648 440.803 239.261 444.813 242.487 447.058C245.691 449.282 251.63 450.393 260.305 450.393C268.958 450.393 275.17 449.194 278.941 446.797C282.69 444.399 284.564 440.4 284.564 434.798C284.564 429.175 283.202 425.546 280.478 423.911C277.753 422.276 272.413 421.459 264.457 421.459L246.802 420.641C243.206 423.257 240.787 425.546 239.544 427.507C238.28 429.469 237.648 431.975 237.648 435.027ZM238.792 366.859C238.792 373.289 240.242 377.866 243.141 380.591C246.018 383.315 250.78 384.678 257.428 384.678C264.076 384.678 268.817 383.315 271.65 380.591C274.484 377.866 275.9 373.257 275.9 366.761C275.9 360.288 274.484 355.689 271.65 352.964C268.817 350.24 264.076 348.878 257.428 348.878C250.78 348.878 246.018 350.262 243.141 353.03C240.242 355.82 238.792 360.43 238.792 366.859ZM360.088 383.043H310.556V371.6H360.088V383.043ZM438.391 412.141L443.131 411.65L443.458 421.295C431.034 423.039 420.409 423.911 411.581 423.911C399.811 423.911 391.474 420.5 386.57 413.678C381.666 406.877 379.214 396.284 379.214 381.899C379.214 353.237 390.603 338.906 413.38 338.906C424.387 338.906 432.615 341.979 438.064 348.126C443.513 354.294 446.237 363.971 446.237 377.158L445.583 386.476H391.638C391.638 395.521 393.273 402.224 396.542 406.583C399.811 410.942 405.5 413.122 413.608 413.122C421.738 413.122 429.999 412.795 438.391 412.141ZM391.474 376.668H433.977C433.977 366.641 432.364 359.558 429.138 355.416C425.934 351.275 420.703 349.205 413.445 349.205C406.209 349.205 400.76 351.384 397.098 355.743C393.458 360.103 391.583 367.077 391.474 376.668ZM514.241 383.043H464.71V371.6H514.241V383.043ZM539.056 422.276V309.154H580.087C591.313 309.154 599.737 311.464 605.36 316.085C610.962 320.728 613.763 328.008 613.763 337.925C613.763 345.009 612.542 350.534 610.101 354.501C607.638 358.49 604.009 361.628 599.214 363.917C611.202 368.058 617.195 376.94 617.195 390.563C617.195 401.897 614.199 410.016 608.205 414.92C602.211 419.824 593.547 422.276 582.213 422.276H539.056ZM580.905 370.292H551.644V411.16H581.722C589.133 411.16 594.778 409.602 598.658 406.485C602.516 403.39 604.445 397.919 604.445 390.072C604.445 385.931 603.66 382.444 602.091 379.61C600.5 376.777 598.396 374.761 595.781 373.562C590.986 371.382 586.027 370.292 580.905 370.292ZM579.597 320.27H551.644V359.34H580.741C587.716 359.34 592.816 357.672 596.042 354.337C599.246 351.024 600.848 346.011 600.848 339.298C600.848 332.607 599.137 327.757 595.715 324.749C592.272 321.763 586.899 320.27 579.597 320.27ZM634.033 381.245C634.033 366.314 636.703 355.525 642.043 348.878C647.383 342.23 656.407 338.906 669.114 338.906C681.799 338.906 690.79 342.23 696.087 348.878C701.361 355.525 703.999 366.314 703.999 381.245C703.999 396.175 701.492 407.019 696.479 413.776C691.466 420.532 682.312 423.911 669.016 423.911C655.72 423.911 646.566 420.532 641.553 413.776C636.54 407.019 634.033 396.175 634.033 381.245ZM646.62 380.983C646.62 392.928 648.07 401.297 650.969 406.092C653.846 410.888 659.894 413.285 669.114 413.285C678.312 413.285 684.328 410.909 687.161 406.158C689.995 401.428 691.411 393.069 691.411 381.081C691.411 369.093 689.831 360.833 686.671 356.299C683.51 351.787 677.658 349.531 669.114 349.531C660.548 349.531 654.663 351.787 651.459 356.299C648.233 360.833 646.62 369.061 646.62 380.983ZM774.945 406.91V340.541H787.206V422.276H774.945V416.555C766.772 421.459 758.707 423.911 750.751 423.911C739.635 423.911 732.247 421.023 728.585 415.247C724.945 409.471 723.125 398.791 723.125 383.207V340.541H735.385V383.043C735.385 394.922 736.42 402.878 738.491 406.91C740.562 410.942 745.248 412.958 752.55 412.958C756.146 412.958 759.797 412.435 763.502 411.389C767.208 410.365 770.041 409.362 772.003 408.381L774.945 406.91ZM823.987 422.276H811.726V304.904H823.987V422.276ZM880.025 460.692C866.947 460.692 857.825 458.926 852.659 455.395C847.472 451.843 844.878 445.38 844.878 436.008C844.878 431.539 845.859 427.921 847.821 425.153C849.782 422.363 853.106 419.225 857.792 415.737C854.741 413.667 853.215 409.907 853.215 404.458C853.215 402.605 854.577 399.172 857.302 394.159L858.773 391.544C850.164 387.62 845.859 379.392 845.859 366.859C845.859 348.224 856.049 338.906 876.428 338.906C881.659 338.906 886.509 339.451 890.977 340.541L893.429 341.031L917.623 340.377V350.839L902.093 350.512C905.689 354.109 907.488 359.558 907.488 366.859C907.488 377.104 904.959 384.264 899.903 388.34C894.824 392.437 886.836 394.486 875.938 394.486C872.995 394.486 870.325 394.268 867.928 393.832C865.966 398.627 864.985 401.733 864.985 403.15C864.985 406.528 866.02 408.621 868.091 409.427C870.162 410.256 876.428 410.67 886.89 410.67C897.352 410.67 904.872 412.304 909.449 415.574C914.027 418.843 916.315 425.219 916.315 434.7C916.315 452.028 904.218 460.692 880.025 460.692ZM856.975 435.027C856.975 440.803 858.588 444.813 861.814 447.058C865.018 449.282 870.957 450.393 879.632 450.393C888.285 450.393 894.497 449.194 898.268 446.797C902.017 444.399 903.891 440.4 903.891 434.798C903.891 429.175 902.529 425.546 899.804 423.911C897.08 422.276 891.74 421.459 883.784 421.459L866.129 420.641C862.533 423.257 860.114 425.546 858.871 427.507C857.607 429.469 856.975 431.975 856.975 435.027ZM858.119 366.859C858.119 373.289 859.569 377.866 862.468 380.591C865.345 383.315 870.107 384.678 876.755 384.678C883.403 384.678 888.144 383.315 890.977 380.591C893.811 377.866 895.227 373.257 895.227 366.761C895.227 360.288 893.811 355.689 890.977 352.964C888.144 350.24 883.403 348.878 876.755 348.878C870.107 348.878 865.345 350.262 862.468 353.03C859.569 355.82 858.119 360.43 858.119 366.859ZM990.204 365.225V407.073C990.531 411.106 993.691 413.503 999.685 414.266L999.195 423.911C990.585 423.911 984.101 421.731 979.742 417.372C969.934 421.731 960.125 423.911 950.317 423.911C942.797 423.911 937.076 421.786 933.153 417.535C929.229 413.285 927.268 407.182 927.268 399.227C927.268 391.271 929.284 385.408 933.316 381.637C937.348 377.888 943.669 375.578 952.279 374.706L977.944 372.254V365.225C977.944 359.667 976.745 355.689 974.347 353.291C971.95 350.894 968.68 349.695 964.539 349.695C955.821 349.695 946.775 350.24 937.403 351.33L932.335 351.82L931.845 342.502C943.833 340.105 954.458 338.906 963.722 338.906C972.985 338.906 979.72 341.031 983.927 345.281C988.112 349.531 990.204 356.179 990.204 365.225ZM939.855 398.573C939.855 408.599 943.996 413.612 952.279 413.612C959.689 413.612 966.991 412.359 974.184 409.852L977.944 408.545V381.572L953.75 383.86C948.846 384.296 945.304 385.713 943.124 388.111C940.945 390.508 939.855 393.996 939.855 398.573Z" fill="black"/>
</g>
<g filter="url(#filter2_d_265_477)">
<path d="M502.65 0C443.194 0 395 48.1941 395 107.65H421.912C421.912 63.0587 458.059 26.9124 502.65 26.9124C547.24 26.9124 583.387 63.0587 583.387 107.65H610.299C610.299 48.1941 562.105 0 502.65 0Z" fill="black"/>
<path d="M502.649 53.8247C472.923 53.8247 448.825 77.9233 448.825 107.649H556.474C556.474 77.9233 532.376 53.8247 502.649 53.8247Z" fill="black"/>
<path d="M475.737 188.387C475.737 203.251 487.785 215.299 502.649 215.299C517.514 215.299 529.562 203.251 529.562 188.387C529.562 161.474 502.649 134.562 502.649 134.562C502.649 134.562 475.737 161.474 475.737 188.387Z" fill="black"/>
</g>
<g filter="url(#filter3_d_265_477)">
<path d="M810.023 200.739H630.848V214.788H810.023V200.739Z" fill="black"/>
</g>
<g filter="url(#filter4_d_265_477)">
<path d="M375.369 200.739H196.194V214.788H375.369V200.739Z" fill="black"/>
</g>
<defs>
<filter id="filter0_d_265_477" x="0" y="254.077" width="1006.22" height="22.0491" filterUnits="userSpaceOnUse" color-interpolation-filters="sRGB">
<feFlood flood-opacity="0" result="BackgroundImageFix"/>
<feColorMatrix in="SourceAlpha" type="matrix" values="0 0 0 0 0 0 0 0 0 0 0 0 0 0 0 0 0 0 127 0" result="hardAlpha"/>
<feOffset dy="4"/>
<feGaussianBlur stdDeviation="2"/>
<feComposite in2="hardAlpha" operator="out"/>
<feColorMatrix type="matrix" values="0 0 0 0 0 0 0 0 0 0 0 0 0 0 0 0 0 0 0.25 0"/>
<feBlend mode="normal" in2="BackgroundImageFix" result="effect1_dropShadow_265_477"/>
<feBlend mode="normal" in="SourceGraphic" in2="effect1_dropShadow_265_477" result="shape"/>
</filter>
<filter id="filter1_d_265_477" x="2.53247" y="304.904" width="1001.15" height="163.788" filterUnits="userSpaceOnUse" color-interpolation-filters="sRGB">
<feFlood flood-opacity="0" result="BackgroundImageFix"/>
<feColorMatrix in="SourceAlpha" type="matrix" values="0 0 0 0 0 0 0 0 0 0 0 0 0 0 0 0 0 0 127 0" result="hardAlpha"/>
<feOffset dy="4"/>
<feGaussianBlur stdDeviation="2"/>
<feComposite in2="hardAlpha" operator="out"/>
<feColorMatrix type="matrix" values="0 0 0 0 0 0 0 0 0 0 0 0 0 0 0 0 0 0 0.25 0"/>
<feBlend mode="normal" in2="BackgroundImageFix" result="effect1_dropShadow_265_477"/>
<feBlend mode="normal" in="SourceGraphic" in2="effect1_dropShadow_265_477" result="shape"/>
</filter>
<filter id="filter2_d_265_477" x="391" y="0" width="223.299" height="223.299" filterUnits="userSpaceOnUse" color-interpolation-filters="sRGB">
<feFlood flood-opacity="0" result="BackgroundImageFix"/>
<feColorMatrix in="SourceAlpha" type="matrix" values="0 0 0 0 0 0 0 0 0 0 0 0 0 0 0 0 0 0 127 0" result="hardAlpha"/>
<feOffset dy="4"/>
<feGaussianBlur stdDeviation="2"/>
<feComposite in2="hardAlpha" operator="out"/>
<feColorMatrix type="matrix" values="0 0 0 0 0 0 0 0 0 0 0 0 0 0 0 0 0 0 0.25 0"/>
<feBlend mode="normal" in2="BackgroundImageFix" result="effect1_dropShadow_265_477"/>
<feBlend mode="normal" in="SourceGraphic" in2="effect1_dropShadow_265_477" result="shape"/>
</filter>
<filter id="filter3_d_265_477" x="626.848" y="200.739" width="187.175" height="22.0491" filterUnits="userSpaceOnUse" color-interpolation-filters="sRGB">
<feFlood flood-opacity="0" result="BackgroundImageFix"/>
<feColorMatrix in="SourceAlpha" type="matrix" values="0 0 0 0 0 0 0 0 0 0 0 0 0 0 0 0 0 0 127 0" result="hardAlpha"/>
<feOffset dy="4"/>
<feGaussianBlur stdDeviation="2"/>
<feComposite in2="hardAlpha" operator="out"/>
<feColorMatrix type="matrix" values="0 0 0 0 0 0 0 0 0 0 0 0 0 0 0 0 0 0 0.25 0"/>
<feBlend mode="normal" in2="BackgroundImageFix" result="effect1_dropShadow_265_477"/>
<feBlend mode="normal" in="SourceGraphic" in2="effect1_dropShadow_265_477" result="shape"/>
</filter>
<filter id="filter4_d_265_477" x="192.194" y="200.739" width="187.175" height="22.0491" filterUnits="userSpaceOnUse" color-interpolation-filters="sRGB">
<feFlood flood-opacity="0" result="BackgroundImageFix"/>
<feColorMatrix in="SourceAlpha" type="matrix" values="0 0 0 0 0 0 0 0 0 0 0 0 0 0 0 0 0 0 127 0" result="hardAlpha"/>
<feOffset dy="4"/>
<feGaussianBlur stdDeviation="2"/>
<feComposite in2="hardAlpha" operator="out"/>
<feColorMatrix type="matrix" values="0 0 0 0 0 0 0 0 0 0 0 0 0 0 0 0 0 0 0.25 0"/>
<feBlend mode="normal" in2="BackgroundImageFix" result="effect1_dropShadow_265_477"/>
<feBlend mode="normal" in="SourceGraphic" in2="effect1_dropShadow_265_477" result="shape"/>
</filter>
</defs>
</svg>
