<svg width="53" height="53" viewBox="0 0 53 53" fill="none" xmlns="http://www.w3.org/2000/svg">
<path d="M26.4997 19.875C28.2567 19.875 29.9418 20.573 31.1843 21.8154C32.4267 23.0578 33.1247 24.7429 33.1247 26.5C33.1247 28.2571 32.4267 29.9422 31.1843 31.1846C29.9418 32.427 28.2567 33.125 26.4997 33.125C24.7426 33.125 23.0575 32.427 21.8151 31.1846C20.5727 29.9422 19.8747 28.2571 19.8747 26.5C19.8747 24.7429 20.5727 23.0578 21.8151 21.8154C23.0575 20.573 24.7426 19.875 26.4997 19.875ZM26.4997 9.9375C37.5413 9.9375 46.9709 16.8054 50.7913 26.5C46.9709 36.1946 37.5413 43.0625 26.4997 43.0625C15.458 43.0625 6.02842 36.1946 2.20801 26.5C6.02842 16.8054 15.458 9.9375 26.4997 9.9375ZM7.02217 26.5C8.80707 30.1444 11.5786 33.215 15.0218 35.3626C18.465 37.5102 22.4416 38.6487 26.4997 38.6487C30.5577 38.6487 34.5344 37.5102 37.9775 35.3626C41.4207 33.215 44.1923 30.1444 45.9772 26.5C44.1923 22.8556 41.4207 19.785 37.9775 17.6374C34.5344 15.4898 30.5577 14.3513 26.4997 14.3513C22.4416 14.3513 18.465 15.4898 15.0218 17.6374C11.5786 19.785 8.80707 22.8556 7.02217 26.5Z" fill="black"/>
</svg>
