<svg width="30" height="30" viewBox="0 0 30 30" fill="none" xmlns="http://www.w3.org/2000/svg">
<g id="streamline:web" clip-path="url(#clip0_171_904)">
<g id="Group">
<path id="Vector" d="M28.9286 15C28.9286 18.6941 27.4611 22.2369 24.849 24.849C22.2369 27.4611 18.6941 28.9286 15 28.9286C11.3059 28.9286 7.76311 27.4611 5.151 24.849C2.53888 22.2369 1.07141 18.6941 1.07141 15M28.9286 15C28.9286 11.3059 27.4611 7.76311 24.849 5.151C22.2369 2.53888 18.6941 1.07141 15 1.07141C11.3059 1.07141 7.76311 2.53888 5.151 5.151C2.53888 7.76311 1.07141 11.3059 1.07141 15M28.9286 15H1.07141" stroke="black" stroke-linecap="round" stroke-linejoin="round"/>
<path id="Vector_2" d="M20.3571 15C20.094 20.0935 18.2178 24.9714 15 28.9286C11.7821 24.9714 9.90596 20.0935 9.64282 15C9.90596 9.90643 11.7821 5.02852 15 1.07141C18.2178 5.02852 20.094 9.90643 20.3571 15Z" stroke="black" stroke-linecap="round" stroke-linejoin="round"/>
</g>
</g>
<defs>
<clipPath id="clip0_171_904">
<rect width="30" height="30" fill="white"/>
</clipPath>
</defs>
</svg>
