<svg width="40" height="40" viewBox="0 0 40 40" fill="none" xmlns="http://www.w3.org/2000/svg">
<g id="icon-park-outline:quote">
<path id="Vector" fill-rule="evenodd" clip-rule="evenodd" d="M15.7108 7.59666C9.43582 11.6267 5.94998 16.3167 5.25248 21.6692C4.16665 30 11.6166 34.0775 15.3916 30.4142C19.1666 26.75 16.9041 22.1 14.1708 20.8283C11.4375 19.5575 9.76582 20 10.0575 18.3008C10.3491 16.6025 14.2375 11.8925 17.6541 9.69916C17.7752 9.59621 17.8525 9.45094 17.8701 9.29299C17.8878 9.13504 17.8445 8.97631 17.7491 8.84916L16.9041 7.75C16.5375 7.27333 16.1858 7.29166 15.7108 7.59583M32.2325 7.59666C25.9575 11.6267 22.4708 16.3175 21.7741 21.6692C20.6883 30 28.1383 34.0775 31.9133 30.4142C35.6883 26.75 33.4258 22.1 30.6917 20.8283C27.9583 19.5575 26.2866 20 26.5783 18.3008C26.87 16.6025 30.7591 11.8925 34.1758 9.69916C34.2968 9.59609 34.3738 9.45077 34.3913 9.29283C34.4088 9.13488 34.3654 8.97621 34.27 8.84916L33.425 7.75C33.0583 7.27333 32.7066 7.29166 32.2325 7.59583" fill="black"/>
</g>
</svg>
