<svg width="34" height="38" viewBox="0 0 34 38" fill="none" xmlns="http://www.w3.org/2000/svg">
<path d="M26.9745 5.95333C25.4922 4.30587 24.6754 2.19014 24.676 0H17.9758V26.1778C17.9241 27.5944 17.3098 28.9362 16.2622 29.9206C15.2147 30.9051 13.8156 31.4554 12.3597 31.4556C9.28061 31.4556 6.72194 29.0067 6.72194 25.9667C6.72194 22.3356 10.3214 19.6122 14.0293 20.7311V14.06C6.54847 13.0889 0 18.7467 0 25.9667C0 32.9967 5.98469 38 12.338 38C19.1467 38 24.676 32.6167 24.676 25.9667V12.6878C27.393 14.5875 30.655 15.6067 34 15.6011V9.07778C34 9.07778 29.9235 9.26778 26.9745 5.95333Z" fill="black"/>
</svg>
